<svg xmlns="http://www.w3.org/2000/svg" height="800" width="1200" viewBox="-16.146675 -6.426775 139.93785 38.56065"><path fill="#cc2936" d="M15.541 7.559L4.032 22.68H15.96v2.52H0v-2.017l11.507-15.12H.588V5.544h14.953z"/><path fill="#222" d="M38.135 15.372a10.743 10.743 0 01-.776 4.116 9.743 9.743 0 01-5.46 5.439 11.132 11.132 0 01-4.222.777 11.006 11.006 0 01-4.178-.777 9.743 9.743 0 01-5.46-5.439 10.706 10.706 0 01-.778-4.116 10.7 10.7 0 01.778-4.116A9.735 9.735 0 0123.5 5.817a10.987 10.987 0 014.178-.778 11.113 11.113 0 014.222.778 9.735 9.735 0 015.46 5.439 10.739 10.739 0 01.775 4.116zm-3.023 0a8.816 8.816 0 00-.526-3.066A7.355 7.355 0 0033.1 9.828a7 7 0 00-2.331-1.659 8.116 8.116 0 00-6.174 0 6.775 6.775 0 00-2.309 1.659 7.558 7.558 0 00-1.47 2.478 9.212 9.212 0 000 6.131 7.532 7.532 0 001.47 2.479 6.775 6.775 0 002.309 1.659 8.141 8.141 0 006.174 0 7 7 0 002.331-1.659 7.33 7.33 0 001.491-2.479 8.807 8.807 0 00.521-3.065zm16.547-7.309h-5.67v11.593a6.294 6.294 0 00.21 1.785 2.52 2.52 0 00.589 1.071 2.019 2.019 0 00.9.525 4.237 4.237 0 001.155.146 5.479 5.479 0 001.47-.209 6.806 6.806 0 001.386-.546l.126 2.562a8.907 8.907 0 01-3.738.714 6.99 6.99 0 01-1.659-.21 3.912 3.912 0 01-1.575-.8 4.392 4.392 0 01-1.176-1.6 6.409 6.409 0 01-.462-2.646V8.063h-4.156V5.544h4.158V0h2.772v5.544h5.67zm4.031 8.065a8.434 8.434 0 00.71 2.772 7.253 7.253 0 003.781 3.738 6.783 6.783 0 002.729.545 7 7 0 003.844-1.028 7.7 7.7 0 002.457-2.373l2.141 1.764a10.652 10.652 0 01-3.884 3.192 10.868 10.868 0 01-4.558.966 10.471 10.471 0 01-4.053-.777 9.508 9.508 0 01-3.213-2.163 10.247 10.247 0 01-2.121-3.276 10.724 10.724 0 01-.777-4.116 10.963 10.963 0 01.757-4.116 9.977 9.977 0 012.1-3.277 9.663 9.663 0 013.151-2.162 9.77 9.77 0 013.905-.778 9.575 9.575 0 013.99.8 8.865 8.865 0 012.961 2.12 9.076 9.076 0 011.827 3.109 11.337 11.337 0 01.63 3.8v1.26zm13.356-2.268a6.291 6.291 0 00-1.68-4.557 6.226 6.226 0 00-4.7-1.744 6.717 6.717 0 00-2.6.525 7.339 7.339 0 00-2.2 1.408 7.029 7.029 0 00-1.512 2.016 5.186 5.186 0 00-.568 2.352zm7.099-2.184q0-1.3-.064-2.646-.064-1.346-.1-3.486h2.729V9.2h.084a6.1 6.1 0 01.84-1.534 6.6 6.6 0 011.323-1.322 6.511 6.511 0 011.802-.944 7.114 7.114 0 012.331-.357 7.52 7.52 0 012.058.252L86.6 8.021a4.7 4.7 0 00-1.6-.21 5.7 5.7 0 00-2.73.61 6.075 6.075 0 00-1.89 1.554 6.446 6.446 0 00-1.113 2.037 6.75 6.75 0 00-.357 2.1V25.2h-2.765zm31.499 3.696a10.724 10.724 0 01-.777 4.116 9.743 9.743 0 01-5.46 5.439 11.126 11.126 0 01-4.221.777 11.008 11.008 0 01-4.179-.777 9.743 9.743 0 01-5.46-5.439 10.706 10.706 0 01-.777-4.116 10.7 10.7 0 01.777-4.116 9.735 9.735 0 015.46-5.439 10.989 10.989 0 014.179-.778 11.107 11.107 0 014.221.778 9.735 9.735 0 015.46 5.439 10.721 10.721 0 01.777 4.116zm-3.024 0a8.839 8.839 0 00-.525-3.066 7.387 7.387 0 00-1.491-2.478 7.006 7.006 0 00-2.332-1.659 8.114 8.114 0 00-6.173 0 6.769 6.769 0 00-2.31 1.659 7.558 7.558 0 00-1.47 2.478 9.212 9.212 0 000 6.131 7.532 7.532 0 001.47 2.479 6.769 6.769 0 002.31 1.659 8.138 8.138 0 006.173 0 7.006 7.006 0 002.332-1.659 7.362 7.362 0 001.491-2.479 8.83 8.83 0 00.525-3.065z"/></svg>